<svg width="50" height="174" viewBox="0 0 50 174" fill="none" xmlns="http://www.w3.org/2000/svg">
<path fill-rule="evenodd" clip-rule="evenodd" d="M1 5H17C20.3137 5 23 7.68629 23 11V163C23 166.314 20.3137 169 17 169H1V173H17C20.2712 173 23.1755 171.429 25 169.001C26.8245 171.429 29.7288 173 33 173H49V169H33C29.6863 169 27 166.314 27 163V11C27 7.68629 29.6863 5 33 5H49V1H33C29.7288 1 26.8245 2.57069 25 4.99903C23.1755 2.57069 20.2712 1 17 1H1V5Z" fill="black"/>
<path d="M1 5H0.5V5.5H1V5ZM1 169V168.5H0.5V169H1ZM1 173H0.5V173.5H1V173ZM25 169.001L25.3997 168.701L25 168.169L24.6003 168.701L25 169.001ZM49 173V173.5H49.5V173H49ZM49 169H49.5V168.5H49V169ZM49 5V5.5H49.5V5H49ZM49 1H49.5V0.5H49V1ZM25 4.99903L24.6003 5.29936L25 5.83142L25.3997 5.29936L25 4.99903ZM1 1V0.5H0.5V1H1ZM17 4.5H1V5.5H17V4.5ZM23.5 11C23.5 7.41015 20.5898 4.5 17 4.5V5.5C20.0376 5.5 22.5 7.96243 22.5 11H23.5ZM22.5 11V163H23.5V11H22.5ZM17 169.5C20.5898 169.5 23.5 166.59 23.5 163H22.5C22.5 166.038 20.0376 168.5 17 168.5V169.5ZM1 169.5H17V168.5H1V169.5ZM1.5 173V169H0.5V173H1.5ZM17 172.5H1V173.5H17V172.5ZM24.6003 168.701C22.8662 171.009 20.1073 172.5 17 172.5V173.5C20.4351 173.5 23.4849 171.85 25.3997 169.301L24.6003 168.701ZM24.6003 169.301C26.5151 171.85 29.5649 173.5 33 173.5V172.5C29.8927 172.5 27.1338 171.009 25.3997 168.701L24.6003 169.301ZM33 173.5H49V172.5H33V173.5ZM49.5 173V169H48.5V173H49.5ZM49 168.5H33V169.5H49V168.5ZM33 168.5C29.9624 168.5 27.5 166.038 27.5 163H26.5C26.5 166.59 29.4102 169.5 33 169.5V168.5ZM27.5 163V11H26.5V163H27.5ZM27.5 11C27.5 7.96243 29.9624 5.5 33 5.5V4.5C29.4102 4.5 26.5 7.41015 26.5 11H27.5ZM33 5.5H49V4.5H33V5.5ZM49.5 5V1H48.5V5H49.5ZM49 0.5H33V1.5H49V0.5ZM33 0.5C29.5649 0.5 26.5151 2.15006 24.6003 4.69869L25.3997 5.29936C27.1338 2.99131 29.8927 1.5 33 1.5V0.5ZM17 1.5C20.1073 1.5 22.8662 2.99131 24.6003 5.29936L25.3997 4.69869C23.4849 2.15006 20.4351 0.5 17 0.5V1.5ZM1 1.5H17V0.5H1V1.5ZM1.5 5V1H0.5V5H1.5Z" fill="white" fill-opacity="0.5"/>
</svg>
